<?xml version="1.0" encoding="utf-8"?>
<!-- Generator: Adobe Illustrator 21.0.2, SVG Export Plug-In . SVG Version: 6.00 Build 0)  -->
<svg version="1.1" xmlns="http://www.w3.org/2000/svg" xmlns:xlink="http://www.w3.org/1999/xlink" x="0px" y="0px"
	 viewBox="0 0 600 600" style="enable-background:new 0 0 600 600;" xml:space="preserve">
<style type="text/css">
	.st0{display:none;fill:url(#SVGID_1_);}
	.st1{display:none;}
	.st2{display:none;fill:none;stroke:#000000;stroke-width:15.3429;stroke-miterlimit:10;}
	.st3{fill:#FFFFFF;}
	.st4{fill:none;stroke:#FFFFFF;stroke-width:14.4562;stroke-miterlimit:10;}
	.st5{fill:#FFFFFF;stroke:#FFFFFF;stroke-width:0.2263;stroke-miterlimit:10;}
	.st6{fill:#FFFFFF;stroke:#FFFFFF;stroke-width:12.1731;stroke-miterlimit:10;}
</style>
<g id="Layer_2">
	
		<linearGradient id="SVGID_1_" gradientUnits="userSpaceOnUse" x1="-4.920717e-04" y1="300.001" x2="599.999" y2="300.001" gradientTransform="matrix(0 1 -1 0 600 9.920717e-04)">
		<stop  offset="0" style="stop-color:#7E2517"/>
		<stop  offset="5.231232e-03" style="stop-color:#7F2618"/>
		<stop  offset="0.1597" style="stop-color:#A23B24"/>
		<stop  offset="0.3174" style="stop-color:#C04E2E"/>
		<stop  offset="0.4778" style="stop-color:#D65B35"/>
		<stop  offset="0.6424" style="stop-color:#E6643A"/>
		<stop  offset="0.8177" style="stop-color:#ED683C"/>
		<stop  offset="1" style="stop-color:#E93E3A"/>
	</linearGradient>
	<rect x="0" y="0" class="st0" width="600" height="600"/>
</g>
<g id="Layer_1">
	<rect class="st1" width="600" height="600"/>
	<circle class="st2" cx="300" cy="246.4" r="173.4"/>
	<g>
		<g>
			<path class="st3" d="M81.7,467.8H35.9l6.6,13v52h39.1c0,0,13,0,13-13v-38.9C94.7,467.8,81.7,467.8,81.7,467.8z M81.7,500.4v13
				c0,6.5-6.5,6.5-6.5,6.5H55.6v-39.1c0,0,13,0,19.6,0c6.5,0,6.5,6.5,6.5,6.5S81.7,493.2,81.7,500.4z"/>
			<path class="st3" d="M159.9,467.8h-26.1c0,0-13,0-13,13v38.9c0,13,13,13,13,13h26.1c0,0,13,0,13-13v-38.9
				C172.9,467.8,159.9,467.8,159.9,467.8z M159.9,500.4v13c0,6.4-6.5,6.4-6.5,6.4h-13c0,0-6.5,0-6.5-6.4v-13c0-7.3,0-13.1,0-13.1
				s0-6.5,6.5-6.5h13c6.5,0,6.5,6.5,6.5,6.5S159.9,493.1,159.9,500.4z"/>
			<path class="st3" d="M316.3,467.8h-26.1c0,0-13,0-13,13V533l13-6.6v-13h26.1v13l13,6.5v-52.2
				C329.4,467.8,316.3,467.8,316.3,467.8z M316.3,500.4h-26.1c0-7.3,0-13.1,0-13.1s0-6.5,6.5-6.5h13c6.5,0,6.5,6.5,6.5,6.5
				S316.3,493.1,316.3,500.4z"/>
			<polygon class="st3" points="251.1,467.8 244.5,480.8 231.6,480.8 231.6,533 218.6,533 218.6,480.8 205.6,480.8 199,467.8 			"/>
		</g>
		<path class="st3" d="M472.8,467.8h-26.1c0,0-13,0-13,13v38.9c0,13,13,13,13,13h26.1c0,0,13,0,13-13v-38.9
			C485.8,467.8,472.8,467.8,472.8,467.8z M472.8,500.4v13c0,6.4-6.5,6.4-6.5,6.4h-13c0,0-6.5,0-6.5-6.4v-13c0-7.3,0-13.1,0-13.1
			s0-6.5,6.5-6.5h13c6.5,0,6.5,6.5,6.5,6.5S472.8,493.1,472.8,500.4z M564.1,487.2l-13,6.5c0-3.9,0-6.4,0-6.4s0-6.5-6.5-6.5h-13
			c-6.5,0-6.5,6.5-6.5,6.5s0,5.9,0,13.1v13c0.1,6.4,6.5,6.4,6.5,6.4h13c0,0,6.5,0,6.5-6.4l13-6.5v12.8c0,13-13,13-13,13h-26.1
			c0,0-13,0-13-13v-38.9c0-13,13-13,13-13H551c0,0,13,0,13,13V487.2z M368.5,487.3c0,0,0,2.7,0,6.6h26.1l13,6.5V520
			c0,13-13,13-13,13h-26.1c0,0-13,0-13-13v-6.5l13,6.6V520H388c6.5,0,6.5-6.5,6.5-6.5s0-2.7,0-6.6h-26.1l-13-6.5v-19.6
			c0-13,13-13,13-13h26.1c0,0,13,0,13,13v6.4l-13-6.5v0H375C368.5,480.8,368.5,487.3,368.5,487.3z"/>
	</g>
	<g>
		<g>
			<path class="st3" d="M437.4,244.9c-3.7-4.5-6.2-9.7-9.4-14.5c-2.1-3.2-4.7-5.9-8.1-7.7c-4.1-2.2-8.8-3.3-13.3-4.2
				c-0.5-0.1-6.7-1.2-8-1.5c-2-6.6-4.6-13-7.8-19c1.1-1.7,4-5.8,4.2-6.2c2.5-3.8,5.1-7.9,6.4-12.3c1.1-3.7,1-7.4,0.3-11.2
				c-1.1-5.6-3.1-11.1-3.6-16.9c0-0.5-0.3-2,0.1-2.4c-0.5,0.4-1.9,0.2-2.4,0.1c-5.8-0.5-11.2-2.5-16.9-3.6
				c-3.8-0.7-7.5-0.8-11.2,0.3c-4.4,1.3-8.5,3.9-12.3,6.4c-0.4,0.3-4.1,2.9-6,4.1c-6.3-3.5-13-6.3-20-8.4c-0.4-2-1.3-7-1.4-7.4
				c-0.9-4.5-2-9.2-4.2-13.3c-1.8-3.4-4.5-6-7.7-8.1c-4.8-3.2-10.1-5.7-14.5-9.4c-0.4-0.3-1.7-1.2-1.7-1.9c0,0.6-1.2,1.5-1.7,1.9
				c-4.5,3.7-9.7,6.2-14.5,9.4c-3.2,2.1-5.9,4.7-7.7,8.1c-2.2,4.1-3.2,8.8-4.2,13.3c-0.1,0.5-1,5.5-1.4,7.4c-7.2,2.1-14,5-20.4,8.5
				c-1.7-1.1-5.8-4-6.2-4.3c-3.8-2.5-7.9-5.1-12.3-6.4c-3.7-1.1-7.4-1-11.2-0.3c-5.7,1.1-11.1,3.1-16.9,3.6c-0.5,0.1-2,0.3-2.5-0.1
				c0.5,0.5,0.2,2,0.2,2.5c-0.5,5.8-2.5,11.2-3.6,16.9c-0.7,3.8-0.8,7.5,0.3,11.2c1.4,4.4,3.9,8.5,6.4,12.3c0.3,0.5,4,5.7,4.6,6.7
				c-3.1,5.8-5.6,12-7.5,18.5c-1.3,0.3-7.5,1.4-8,1.5c-4.5,0.9-9.2,2-13.3,4.2c-3.4,1.8-6,4.5-8.1,7.7c-3.2,4.8-5.7,10-9.4,14.5
				c-0.3,0.4-1.2,1.7-1.9,1.7c0.7,0,1.5,1.2,1.9,1.7c3.7,4.4,6.2,9.7,9.4,14.5c2.1,3.2,4.7,5.9,8.1,7.7c4.1,2.2,8.8,3.3,13.3,4.2
				c0.5,0.1,6.7,1.2,8,1.5c1.9,6.5,4.5,12.7,7.6,18.6c-0.5,0.8-4.3,6.3-4.7,6.8c-2.5,3.8-5.1,7.9-6.4,12.3c-1.1,3.7-1,7.4-0.3,11.2
				c1.1,5.6,3.1,11.1,3.6,16.9c0,0.5,0.3,2-0.2,2.5c0.5-0.5,2-0.2,2.5-0.1c5.8,0.5,11.2,2.5,16.9,3.6c3.8,0.7,7.5,0.8,11.2-0.3
				c4.4-1.3,8.5-3.9,12.3-6.4c0.5-0.3,4.8-3.3,6.4-4.4c6.4,3.5,13.2,6.4,20.3,8.5c0.4,2.1,1.2,6.7,1.3,7.2c0.9,4.5,2,9.2,4.2,13.3
				c1.8,3.4,4.5,6,7.7,8.1c4.8,3.2,10,5.7,14.5,9.4c0.4,0.3,1.7,1.2,1.7,1.9c0-0.7,1.2-1.5,1.7-1.9c4.5-3.7,9.7-6.2,14.5-9.4
				c3.2-2.1,5.9-4.7,7.7-8.1c2.2-4.1,3.2-8.8,4.2-13.3c0.1-0.5,0.9-5.1,1.3-7.2c6.8-2,13.4-4.7,19.5-8.1c1.5,0.9,6.1,4.1,6.5,4.4
				c3.8,2.5,7.9,5.1,12.3,6.4c3.7,1.1,7.4,1,11.2,0.3c5.7-1.1,11.1-3.1,16.9-3.6c0.5-0.1,2-0.3,2.5,0.1c-0.5-0.5-0.2-2-0.1-2.5
				c0.5-5.8,2.5-11.2,3.6-16.9c0.7-3.8,0.8-7.5-0.3-11.2c-1.3-4.4-3.9-8.5-6.4-12.3c-0.3-0.5-3.5-5.1-4.5-6.5c3.3-6.1,6-12.6,8-19.3
				c1.3-0.3,7.5-1.4,8-1.5c4.5-0.9,9.2-2,13.3-4.2c3.4-1.8,6-4.5,8.1-7.7c3.2-4.8,5.7-10.1,9.4-14.5c0.3-0.4,1.2-1.7,1.9-1.7
				C438.7,246.5,437.8,245.3,437.4,244.9z M402.4,263.8h-14.6c-2.3,11.7-6.9,22.6-13.3,32.2l10.3,10.3c6.8,6.8,6.8,17.7,0,24.5
				c-6.8,6.8-17.7,6.8-24.5,0L350,320.6c-9.7,6.6-20.8,11.3-32.7,13.6v14.3c0,9.6-7.7,17.3-17.3,17.3c-9.6,0-17.3-7.7-17.3-17.3
				v-14.3c-12.1-2.3-23.3-7.2-33.1-13.8l-10.4,10.4c-6.8,6.7-17.7,6.8-24.5,0c-6.8-6.8-6.8-17.7,0-24.5l10.6-10.6
				c-6.4-9.6-10.9-20.6-13.2-32.4v0.6H197c-9.6,0-17.3-7.8-17.3-17.3c0-9.6,7.8-17.3,17.3-17.3h15.1v0.4c2.2-11.7,6.7-22.6,13-32.2
				l-10.6-10.6c-0.1-0.1-0.2-0.2-0.2-0.2c-3.5-3.2-5.7-7.8-5.7-12.8c0-9.6,7.7-17.3,17.3-17.3c5.1,0,9.6,2.2,12.8,5.6c0,0,0,0,0,0
				c0.1,0.1,0.2,0.1,0.2,0.2l10.4,10.4c9.9-6.8,21.1-11.7,33.3-14v-14.1c0-9.6,7.8-17.3,17.3-17.3c9.6,0,17.3,7.7,17.3,17.3v14.1
				c12,2.4,23.2,7.1,33,13.8l10.6-10.5c6.7-6.8,17.7-6.8,24.5,0c6.8,6.8,6.8,17.7,0,24.5l-10.7,10.7c6.4,9.6,10.9,20.4,13.2,32.1
				h14.6c9.6,0,17.3,7.7,17.3,17.3C419.7,256.1,411.9,263.8,402.4,263.8z"/>
		</g>
		<path class="st4" d="M463.3,246.5c0,90.2-73.1,163.3-163.4,163.3c-90.2,0-163.3-73.1-163.3-163.3c0-4.8,0.2-9.6,0.6-14.4
			c0.2-2.8,0.6-5.7,1-8.5c0.2-1.4,0.4-2.7,0.6-4.1c0.1-0.9,0.3-1.9,0.5-2.8c0.3-1.8,0.7-3.7,1.1-5.5c0.2-0.9,0.4-1.8,0.6-2.7
			c0.6-2.7,1.4-5.4,2.1-8c0.3-0.9,0.5-1.8,0.8-2.6c0.4-1.3,0.8-2.6,1.2-3.8c0.2-0.6,0.4-1.3,0.6-1.9c0.2-0.6,0.5-1.2,0.7-1.9
			c0.5-1.2,0.9-2.5,1.4-3.7c0.2-0.6,0.5-1.2,0.7-1.9c0.5-1.2,1-2.4,1.6-3.7c0.4-0.9,0.8-1.8,1.2-2.7c0.8-1.8,1.7-3.6,2.6-5.4
			c0.4-0.9,0.9-1.8,1.4-2.6c0.3-0.6,0.6-1.2,0.9-1.8c0.6-1.2,1.3-2.3,1.9-3.4c0.3-0.6,0.7-1.1,1-1.7c0.7-1.1,1.4-2.2,2.1-3.4
			c13.2-21.2,31.1-39.1,52.3-52.3c1.1-0.7,2.2-1.4,3.4-2c0.6-0.3,1.1-0.7,1.7-1c1.1-0.7,2.3-1.3,3.4-1.9c0.6-0.3,1.2-0.6,1.8-0.9
			c0.9-0.5,1.8-0.9,2.6-1.4c1.8-0.9,3.6-1.8,5.4-2.6c0.9-0.4,1.8-0.8,2.7-1.2c1.2-0.5,2.4-1,3.7-1.5c0.6-0.2,1.2-0.5,1.9-0.7
			c1.2-0.5,2.5-1,3.7-1.4c0.6-0.2,1.2-0.5,1.9-0.7c0.6-0.2,1.3-0.4,1.9-0.7c1.3-0.4,2.5-0.8,3.8-1.2c0.9-0.3,1.8-0.5,2.6-0.8
			c2.6-0.8,5.3-1.5,8.1-2.1c0.9-0.2,1.8-0.4,2.7-0.6c1.8-0.4,3.6-0.8,5.5-1.1c0.9-0.2,1.9-0.3,2.8-0.5c1.4-0.2,2.7-0.4,4.1-0.6
			c2.8-0.4,5.6-0.7,8.5-1c4.7-0.4,9.5-0.6,14.4-0.6c4.8,0,9.6,0.2,14.4,0.6c2.8,0.2,5.7,0.6,8.5,1c1.4,0.2,2.7,0.4,4.1,0.6
			c0.9,0.1,1.8,0.3,2.8,0.5c1.8,0.3,3.7,0.7,5.5,1.1c0.9,0.2,1.8,0.4,2.7,0.6c2.7,0.6,5.4,1.4,8,2.1c0.9,0.3,1.8,0.5,2.7,0.8
			c1.3,0.4,2.5,0.8,3.8,1.2c0.6,0.2,1.3,0.4,1.9,0.7c0.6,0.2,1.2,0.4,1.9,0.7c1.2,0.5,2.5,0.9,3.7,1.4c0.6,0.2,1.2,0.5,1.8,0.7
			c1.2,0.5,2.5,1,3.7,1.5c0.9,0.4,1.8,0.8,2.7,1.2c1.8,0.8,3.6,1.7,5.4,2.6c0.9,0.4,1.8,0.9,2.6,1.4c0.6,0.3,1.2,0.6,1.8,0.9
			c1.2,0.6,2.3,1.3,3.4,1.9c0.6,0.3,1.1,0.7,1.7,1c1.1,0.7,2.2,1.4,3.4,2C432.6,136.6,463.3,188,463.3,246.5z"/>
		<path class="st3" d="M253.7,198.6c0,0-19,14.6-22.1,36.5c-1.8,13-1,26.8,4.4,38.8c1.8,4,4,7.8,6.5,11.3
			c3.9,5.4,8.5,10.4,13.9,14.5c11.3,8.5,24.5,14,38.7,15.2c9.2,0.8,21.3,0.7,29.7-3.8c12.7-6.7,10-24.3-3.1-28.9
			c-2.3-0.8-4.8-1.3-7.2-1.7c-9.2-1.4-18.6-1.9-27.4-4.9c-8.8-3-16.3-8.8-22.1-16c-1.5-1.8-12.3-17.5-9.1-19c6.3-3,20-7.1,17.8-15.1
			c-0.7-2.5-2.7-5-4.7-6.5c-3.4-2.5-6.6-4.7-9.2-8.2C257,207.2,254.8,203,253.7,198.6z"/>
		<path class="st3" d="M346.3,294.6c0,0,19-14.6,22.1-36.5c1.8-13,1-26.8-4.4-38.8c-1.8-4-4-7.8-6.5-11.3
			c-11.2-15.4-28.6-26.7-47.6-29.4c-8.5-1.2-18.2-1.5-26.6,0.5c-6.5,1.6-13.8,6-15.9,12.8c-2.3,7.6,3.5,16.6,10.9,19.2
			c10.2,3.6,21.1,4,31.6,6.3c14.4,3.2,26.3,13.2,34.7,24.9c1,1.3,7,9.7,3.4,11.4c-6.3,3-23.8,6-21.6,14c0.7,2.5,2.7,5,4.7,6.5
			c3.4,2.5,6.6,4.7,9.2,8.2C343,286,345.1,290.2,346.3,294.6z"/>
		<ellipse class="st3" cx="300" cy="246.4" rx="19.2" ry="19.2"/>
		<path class="st5" d="M136.7,246.4"/>
		<path class="st6" d="M479.4,246.5h-16.1c0-58.5-30.8-109.8-77-138.7c-1.1-0.7-2.2-1.4-3.4-2c-0.6-0.3-1.1-0.7-1.7-1
			c-1.1-0.7-2.3-1.3-3.4-1.9c-0.6-0.3-1.2-0.6-1.8-0.9c-0.9-0.5-1.8-0.9-2.6-1.4c-1.8-0.9-3.6-1.8-5.4-2.6c-0.9-0.4-1.8-0.8-2.7-1.2
			c-1.2-0.5-2.4-1-3.7-1.5c-0.6-0.2-1.2-0.5-1.8-0.7c-1.2-0.5-2.5-1-3.7-1.4c-0.6-0.2-1.2-0.5-1.9-0.7c-0.6-0.2-1.3-0.4-1.9-0.7
			c-1.3-0.4-2.5-0.8-3.8-1.2c-0.9-0.3-1.8-0.5-2.7-0.8c-2.7-0.8-5.3-1.5-8-2.1c-0.9-0.2-1.8-0.4-2.7-0.6c-1.8-0.4-3.7-0.8-5.5-1.1
			c-0.9-0.2-1.8-0.3-2.8-0.5c-1.3-0.2-2.7-0.4-4.1-0.6c-2.8-0.4-5.6-0.7-8.5-1c-4.7-0.4-9.5-0.6-14.4-0.6c-4.8,0-9.6,0.2-14.4,0.6
			c-2.8,0.2-5.7,0.6-8.5,1c-1.4,0.2-2.7,0.4-4.1,0.6c-0.9,0.1-1.9,0.3-2.8,0.5c-1.8,0.3-3.7,0.7-5.5,1.1c-0.9,0.2-1.8,0.4-2.7,0.6
			c-2.7,0.6-5.4,1.4-8.1,2.1c-0.9,0.3-1.8,0.5-2.6,0.8c-1.3,0.4-2.5,0.8-3.8,1.2c-0.6,0.2-1.3,0.4-1.9,0.7c-0.6,0.2-1.2,0.4-1.9,0.7
			c-1.2,0.5-2.5,0.9-3.7,1.4c-0.6,0.2-1.2,0.5-1.9,0.7c-1.2,0.5-2.5,1-3.7,1.5c-0.9,0.4-1.8,0.8-2.7,1.2c-1.8,0.8-3.6,1.7-5.4,2.6
			c-0.9,0.4-1.8,0.9-2.6,1.4c-0.6,0.3-1.2,0.6-1.8,0.9c-1.1,0.6-2.3,1.3-3.4,1.9c-0.6,0.3-1.1,0.7-1.7,1c-1.1,0.7-2.2,1.4-3.4,2
			c-21.2,13.2-39.1,31.1-52.3,52.3c-0.7,1.1-1.4,2.2-2.1,3.4c-0.3,0.6-0.7,1.1-1,1.7c-0.7,1.1-1.3,2.3-1.9,3.4
			c-0.3,0.6-0.6,1.2-0.9,1.8c-0.5,0.9-0.9,1.8-1.4,2.6c-0.9,1.8-1.8,3.5-2.6,5.4c-0.4,0.9-0.8,1.8-1.2,2.7c-0.5,1.2-1.1,2.4-1.6,3.7
			c-0.2,0.6-0.5,1.2-0.7,1.9c-0.5,1.2-1,2.5-1.4,3.7c-0.2,0.6-0.5,1.2-0.7,1.9c-0.2,0.6-0.4,1.3-0.6,1.9c-0.4,1.3-0.9,2.5-1.2,3.8
			c-0.3,0.9-0.5,1.8-0.8,2.6c-0.8,2.6-1.5,5.3-2.1,8c-0.2,0.9-0.4,1.8-0.6,2.7c-0.4,1.8-0.8,3.6-1.1,5.5c-0.2,0.9-0.3,1.9-0.5,2.8
			c-0.2,1.4-0.4,2.7-0.6,4.1c-0.4,2.8-0.7,5.6-1,8.5c-0.4,4.7-0.6,9.5-0.6,14.4h-16.1c0,0-3.1-165.9,179.4-179.5
			C482.5,80.6,479.4,246.5,479.4,246.5z"/>
		<path class="st3" d="M130.8,267.4c-0.8-10.6-16.2-14.8-16.2-14.8v-0.3l15.5-0.6C130.1,251.7,131.6,277.9,130.8,267.4z"/>
		<path class="st3" d="M485.5,252.3v0.3c0,0-15.5,4.2-16.3,14.8c-0.8,10.6,0.8-15.7,0.8-15.7L485.5,252.3z"/>
	</g>
</g>
</svg>
